<mxfile host="65bd71144e">
    <diagram id="RrBgmBsddNxgQJBrvr09" name="Page-1">
        <mxGraphModel dx="1123" dy="860" grid="1" gridSize="10" guides="1" tooltips="1" connect="1" arrows="1" fold="1" page="1" pageScale="1" pageWidth="827" pageHeight="1169" background="none" math="0" shadow="0">
            <root>
                <mxCell id="0"/>
                <mxCell id="1" parent="0"/>
                <mxCell id="qN1efNsB-PRa6IGB4bVE-3" style="edgeStyle=orthogonalEdgeStyle;rounded=0;orthogonalLoop=1;jettySize=auto;html=1;fontColor=#333333;" parent="1" target="qN1efNsB-PRa6IGB4bVE-2" edge="1">
                    <mxGeometry relative="1" as="geometry">
                        <mxPoint x="330" y="100" as="sourcePoint"/>
                    </mxGeometry>
                </mxCell>
                <mxCell id="qN1efNsB-PRa6IGB4bVE-7" style="edgeStyle=orthogonalEdgeStyle;rounded=0;orthogonalLoop=1;jettySize=auto;html=1;entryX=0.5;entryY=0;entryDx=0;entryDy=0;fontColor=#333333;" parent="1" source="qN1efNsB-PRa6IGB4bVE-2" target="qN1efNsB-PRa6IGB4bVE-4" edge="1">
                    <mxGeometry relative="1" as="geometry"/>
                </mxCell>
                <mxCell id="qN1efNsB-PRa6IGB4bVE-2" value="Actualisation de la connexion avec discord (mise à jour serveur → client)" style="rounded=0;whiteSpace=wrap;html=1;fillColor=#e1d5e7;strokeColor=#9673a6;fontColor=#333333;" parent="1" vertex="1">
                    <mxGeometry x="270" y="140" width="120" height="60" as="geometry"/>
                </mxCell>
                <mxCell id="qN1efNsB-PRa6IGB4bVE-8" style="edgeStyle=orthogonalEdgeStyle;rounded=0;orthogonalLoop=1;jettySize=auto;html=1;entryX=1;entryY=0.5;entryDx=0;entryDy=0;fontColor=#333333;" parent="1" source="qN1efNsB-PRa6IGB4bVE-4" target="qN1efNsB-PRa6IGB4bVE-6" edge="1">
                    <mxGeometry relative="1" as="geometry"/>
                </mxCell>
                <mxCell id="qN1efNsB-PRa6IGB4bVE-9" value="Oui" style="edgeLabel;html=1;align=center;verticalAlign=middle;resizable=0;points=[];fontColor=#999999;labelBackgroundColor=none;" parent="qN1efNsB-PRa6IGB4bVE-8" vertex="1" connectable="0">
                    <mxGeometry x="-0.8466" y="3" relative="1" as="geometry">
                        <mxPoint x="-15" y="-3" as="offset"/>
                    </mxGeometry>
                </mxCell>
                <mxCell id="qN1efNsB-PRa6IGB4bVE-11" style="edgeStyle=orthogonalEdgeStyle;rounded=0;orthogonalLoop=1;jettySize=auto;html=1;entryX=0.5;entryY=0;entryDx=0;entryDy=0;fontColor=#333333;" parent="1" source="qN1efNsB-PRa6IGB4bVE-4" target="qN1efNsB-PRa6IGB4bVE-10" edge="1">
                    <mxGeometry relative="1" as="geometry">
                        <Array as="points">
                            <mxPoint x="330" y="330"/>
                            <mxPoint x="330" y="330"/>
                        </Array>
                    </mxGeometry>
                </mxCell>
                <mxCell id="qN1efNsB-PRa6IGB4bVE-33" value="Non" style="edgeLabel;html=1;align=center;verticalAlign=middle;resizable=0;points=[];fontColor=#999999;labelBackgroundColor=none;" parent="qN1efNsB-PRa6IGB4bVE-11" vertex="1" connectable="0">
                    <mxGeometry x="0.304" y="-3" relative="1" as="geometry">
                        <mxPoint x="3" y="-10" as="offset"/>
                    </mxGeometry>
                </mxCell>
                <mxCell id="qN1efNsB-PRa6IGB4bVE-4" value="Fenêtre fermée ?" style="rhombus;whiteSpace=wrap;html=1;fillColor=#fff2cc;strokeColor=#d6b656;fontColor=#333333;" parent="1" vertex="1">
                    <mxGeometry x="270" y="240" width="120" height="70" as="geometry"/>
                </mxCell>
                <mxCell id="qN1efNsB-PRa6IGB4bVE-5" value="Boucle principale" style="ellipse;whiteSpace=wrap;html=1;fillColor=#dae8fc;strokeColor=#6c8ebf;fontColor=#333333;" parent="1" vertex="1">
                    <mxGeometry x="270" y="40" width="120" height="60" as="geometry"/>
                </mxCell>
                <mxCell id="qN1efNsB-PRa6IGB4bVE-6" value="Fin" style="rounded=0;whiteSpace=wrap;html=1;fillColor=#f8cecc;strokeColor=#b85450;fontColor=#333333;" parent="1" vertex="1">
                    <mxGeometry x="90" y="245" width="120" height="60" as="geometry"/>
                </mxCell>
                <mxCell id="qN1efNsB-PRa6IGB4bVE-13" style="edgeStyle=orthogonalEdgeStyle;rounded=0;orthogonalLoop=1;jettySize=auto;html=1;entryX=0.5;entryY=0;entryDx=0;entryDy=0;fontColor=#333333;" parent="1" source="qN1efNsB-PRa6IGB4bVE-10" target="qN1efNsB-PRa6IGB4bVE-12" edge="1">
                    <mxGeometry relative="1" as="geometry"/>
                </mxCell>
                <mxCell id="qN1efNsB-PRa6IGB4bVE-10" value="Actualisation des touches" style="rounded=0;whiteSpace=wrap;html=1;fillColor=#d5e8d4;strokeColor=#82b366;fontColor=#333333;" parent="1" vertex="1">
                    <mxGeometry x="270" y="340" width="120" height="60" as="geometry"/>
                </mxCell>
                <mxCell id="qN1efNsB-PRa6IGB4bVE-16" style="edgeStyle=orthogonalEdgeStyle;rounded=0;orthogonalLoop=1;jettySize=auto;html=1;entryX=0.5;entryY=0;entryDx=0;entryDy=0;fontColor=#333333;" parent="1" source="qN1efNsB-PRa6IGB4bVE-12" target="qN1efNsB-PRa6IGB4bVE-14" edge="1">
                    <mxGeometry relative="1" as="geometry"/>
                </mxCell>
                <mxCell id="qN1efNsB-PRa6IGB4bVE-12" value="Actualisation de la connexion avec discord (mise à jour client → serveur)" style="rounded=0;whiteSpace=wrap;html=1;fillColor=#e1d5e7;strokeColor=#9673a6;fontColor=#333333;" parent="1" vertex="1">
                    <mxGeometry x="270" y="440" width="120" height="60" as="geometry"/>
                </mxCell>
                <mxCell id="qN1efNsB-PRa6IGB4bVE-17" style="edgeStyle=orthogonalEdgeStyle;rounded=0;orthogonalLoop=1;jettySize=auto;html=1;entryX=0;entryY=0.5;entryDx=0;entryDy=0;fontColor=#333333;" parent="1" source="qN1efNsB-PRa6IGB4bVE-14" target="qN1efNsB-PRa6IGB4bVE-15" edge="1">
                    <mxGeometry relative="1" as="geometry"/>
                </mxCell>
                <mxCell id="qN1efNsB-PRa6IGB4bVE-14" value="Préparation de l'affichage (suppression de l'écran)" style="rounded=0;whiteSpace=wrap;html=1;fillColor=#d5e8d4;strokeColor=#82b366;fontColor=#333333;" parent="1" vertex="1">
                    <mxGeometry x="270" y="540" width="120" height="60" as="geometry"/>
                </mxCell>
                <mxCell id="qN1efNsB-PRa6IGB4bVE-23" value="" style="edgeStyle=orthogonalEdgeStyle;rounded=0;orthogonalLoop=1;jettySize=auto;html=1;fontColor=#333333;" parent="1" source="qN1efNsB-PRa6IGB4bVE-15" target="qN1efNsB-PRa6IGB4bVE-22" edge="1">
                    <mxGeometry relative="1" as="geometry"/>
                </mxCell>
                <mxCell id="qN1efNsB-PRa6IGB4bVE-15" value="Affichage des tuiles" style="rounded=0;whiteSpace=wrap;html=1;fillColor=#d5e8d4;strokeColor=#82b366;fontColor=#333333;" parent="1" vertex="1">
                    <mxGeometry x="450" y="540" width="120" height="60" as="geometry"/>
                </mxCell>
                <mxCell id="qN1efNsB-PRa6IGB4bVE-25" value="" style="edgeStyle=orthogonalEdgeStyle;rounded=0;orthogonalLoop=1;jettySize=auto;html=1;fontColor=#333333;" parent="1" source="qN1efNsB-PRa6IGB4bVE-22" target="qN1efNsB-PRa6IGB4bVE-24" edge="1">
                    <mxGeometry relative="1" as="geometry"/>
                </mxCell>
                <mxCell id="qN1efNsB-PRa6IGB4bVE-28" style="edgeStyle=orthogonalEdgeStyle;rounded=0;orthogonalLoop=1;jettySize=auto;html=1;exitX=1;exitY=0.5;exitDx=0;exitDy=0;fontColor=#333333;" parent="1" source="qN1efNsB-PRa6IGB4bVE-22" edge="1">
                    <mxGeometry relative="1" as="geometry">
                        <mxPoint x="620" y="490" as="sourcePoint"/>
                        <mxPoint x="510" y="310" as="targetPoint"/>
                        <Array as="points">
                            <mxPoint x="630" y="470"/>
                            <mxPoint x="630" y="310"/>
                        </Array>
                    </mxGeometry>
                </mxCell>
                <mxCell id="qN1efNsB-PRa6IGB4bVE-29" value="Non" style="edgeLabel;html=1;align=center;verticalAlign=middle;resizable=0;points=[];fontColor=#999999;labelBackgroundColor=none;" parent="qN1efNsB-PRa6IGB4bVE-28" vertex="1" connectable="0">
                    <mxGeometry x="0.6063" y="3" relative="1" as="geometry">
                        <mxPoint x="13" y="157" as="offset"/>
                    </mxGeometry>
                </mxCell>
                <mxCell id="qN1efNsB-PRa6IGB4bVE-30" value="Oui" style="edgeLabel;html=1;align=center;verticalAlign=middle;resizable=0;points=[];fontColor=#999999;labelBackgroundColor=none;" parent="qN1efNsB-PRa6IGB4bVE-28" vertex="1" connectable="0">
                    <mxGeometry x="-0.0984" y="-1" relative="1" as="geometry">
                        <mxPoint x="-121" y="46" as="offset"/>
                    </mxGeometry>
                </mxCell>
                <mxCell id="qN1efNsB-PRa6IGB4bVE-22" value="Mode débug&lt;br&gt;activé ?" style="rhombus;whiteSpace=wrap;html=1;rounded=0;fillColor=#fff2cc;strokeColor=#d6b656;fontColor=#333333;" parent="1" vertex="1">
                    <mxGeometry x="450" y="440" width="120" height="60" as="geometry"/>
                </mxCell>
                <mxCell id="qN1efNsB-PRa6IGB4bVE-27" style="edgeStyle=orthogonalEdgeStyle;rounded=0;orthogonalLoop=1;jettySize=auto;html=1;entryX=0.5;entryY=1;entryDx=0;entryDy=0;fontColor=#333333;" parent="1" source="qN1efNsB-PRa6IGB4bVE-24" target="qN1efNsB-PRa6IGB4bVE-26" edge="1">
                    <mxGeometry relative="1" as="geometry"/>
                </mxCell>
                <mxCell id="qN1efNsB-PRa6IGB4bVE-24" value="Affichage de l'écran de débuggage" style="whiteSpace=wrap;html=1;rounded=0;fillColor=#d5e8d4;strokeColor=#82b366;fontColor=#333333;" parent="1" vertex="1">
                    <mxGeometry x="450" y="340" width="120" height="60" as="geometry"/>
                </mxCell>
                <mxCell id="qN1efNsB-PRa6IGB4bVE-32" style="edgeStyle=orthogonalEdgeStyle;rounded=0;orthogonalLoop=1;jettySize=auto;html=1;entryX=0.5;entryY=1;entryDx=0;entryDy=0;fontColor=#333333;" parent="1" source="qN1efNsB-PRa6IGB4bVE-26" target="qN1efNsB-PRa6IGB4bVE-31" edge="1">
                    <mxGeometry relative="1" as="geometry">
                        <mxPoint x="510" y="205" as="targetPoint"/>
                    </mxGeometry>
                </mxCell>
                <mxCell id="qN1efNsB-PRa6IGB4bVE-26" value="Rafraîchissement de l'écran" style="rounded=0;whiteSpace=wrap;html=1;fillColor=#d5e8d4;strokeColor=#82b366;fontColor=#333333;" parent="1" vertex="1">
                    <mxGeometry x="450" y="240" width="120" height="60" as="geometry"/>
                </mxCell>
                <mxCell id="qN1efNsB-PRa6IGB4bVE-34" style="edgeStyle=orthogonalEdgeStyle;rounded=0;orthogonalLoop=1;jettySize=auto;html=1;fontColor=#333333;" parent="1" source="qN1efNsB-PRa6IGB4bVE-31" edge="1">
                    <mxGeometry relative="1" as="geometry">
                        <mxPoint x="330" y="120" as="targetPoint"/>
                        <Array as="points">
                            <mxPoint x="530" y="120"/>
                        </Array>
                    </mxGeometry>
                </mxCell>
                <mxCell id="qN1efNsB-PRa6IGB4bVE-31" value="Attente de suffisamment de temps pour ne pas excéder les FPS" style="rounded=0;whiteSpace=wrap;html=1;fillColor=#d5e8d4;strokeColor=#82b366;fontColor=#333333;" parent="1" vertex="1">
                    <mxGeometry x="450" y="140" width="120" height="60" as="geometry"/>
                </mxCell>
            </root>
        </mxGraphModel>
    </diagram>
</mxfile>